<svg width="26" height="28" viewBox="0 0 26 28" fill="none" xmlns="http://www.w3.org/2000/svg">
<path d="M24.5612 0C24.9562 0 25.2947 0.15191 25.5768 0.455729C25.8589 0.759549 26 1.12413 26 1.54948V26.4505C26 26.8759 25.8589 27.2404 25.5768 27.5443C25.2947 27.8481 24.9562 28 24.5612 28H17.9427V17.1536H21.3112L21.819 12.9245H17.9427V10.2266C17.9427 9.54601 18.0753 9.03559 18.3405 8.69531C18.6057 8.35503 19.122 8.1849 19.8893 8.1849L21.9544 8.16667V4.39323C21.2435 4.28385 20.2391 4.22917 18.9414 4.22917C17.4067 4.22917 16.1795 4.71528 15.2598 5.6875C14.3401 6.65972 13.8802 8.03299 13.8802 9.80729V12.9245H10.4948V17.1536H13.8802V28H1.4388C1.04384 28 0.705295 27.8481 0.423177 27.5443C0.141059 27.2404 0 26.8759 0 26.4505V1.54948C0 1.12413 0.141059 0.759549 0.423177 0.455729C0.705295 0.15191 1.04384 0 1.4388 0H24.5612Z" fill="#CCCCCC"/>
</svg>
