<svg width="26" height="28" viewBox="0 0 26 28" fill="none" xmlns="http://www.w3.org/2000/svg">
<path d="M24.96 0H1.04C0.46475 0 0 0.5005 0 1.12V26.88C0 27.4995 0.46475 28 1.04 28H24.96C25.5352 28 26 27.4995 26 26.88V1.12C26 0.5005 25.5352 0 24.96 0ZM19.9972 10.1395C20.007 10.304 20.007 10.4755 20.007 10.6435C20.007 15.7815 16.3735 21.7 9.73375 21.7C7.68625 21.7 5.78825 21.0595 4.18925 19.957C4.48175 19.992 4.76125 20.006 5.06025 20.006C6.75025 20.006 8.30375 19.39 9.542 18.347C7.956 18.312 6.6235 17.192 6.1685 15.652C6.72425 15.7395 7.22475 15.7395 7.79675 15.582C6.98011 15.4033 6.24609 14.9257 5.7194 14.2302C5.19271 13.5348 4.90583 12.6644 4.9075 11.767V11.718C5.38525 12.0085 5.9475 12.187 6.53575 12.2115C6.04124 11.8566 5.63569 11.3757 5.35506 10.8116C5.07443 10.2475 4.9274 9.61748 4.927 8.9775C4.927 8.253 5.1025 7.5915 5.41775 7.0175C6.32418 8.21918 7.45527 9.202 8.73751 9.90208C10.0197 10.6022 11.4244 11.0038 12.8602 11.081C12.35 8.4385 14.183 6.3 16.3865 6.3C17.4265 6.3 18.3625 6.769 19.0222 7.525C19.838 7.3605 20.618 7.0315 21.3135 6.5905C21.0437 7.49 20.4782 8.2495 19.7275 8.729C20.4555 8.645 21.1575 8.428 21.8075 8.1235C21.3167 8.9005 20.7025 9.59 19.9972 10.1395Z" fill="#CCCCCC"/>
</svg>
