<svg width="28" height="20" viewBox="0 0 28 20" fill="none" xmlns="http://www.w3.org/2000/svg">
<path d="M27.3602 3.1225C28 5.35 28 10 28 10C28 10 28 14.65 27.3602 16.8775C27.0046 18.1088 25.9644 19.0775 24.647 19.405C22.2544 20 14 20 14 20C14 20 5.7498 20 3.353 19.405C2.03 19.0725 0.9912 18.105 0.6398 16.8775C4.17233e-08 14.65 0 10 0 10C0 10 4.17233e-08 5.35 0.6398 3.1225C0.9954 1.89125 2.0356 0.9225 3.353 0.595C5.7498 -2.23517e-07 14 0 14 0C14 0 22.2544 -2.23517e-07 24.647 0.595C25.97 0.9275 27.0088 1.895 27.3602 3.1225ZM11.2 14.375L19.6 10L11.2 5.625V14.375Z" fill="#CCCCCC"/>
</svg>
