<svg width="17" height="44" viewBox="0 0 17 44" fill="none" xmlns="http://www.w3.org/2000/svg">
<g id="Union">
<path id="Union_2" fill-rule="evenodd" clip-rule="evenodd" d="M0.964001 11.3548C0.964001 15.6663 4.4602 19.4163 9.6087 21.3392C10.2853 21.5921 10.9931 21.8132 11.7225 22C11.3861 22.0863 11.0537 22.1795 10.7272 22.28C10.5062 22.3483 10.2872 22.4196 10.0721 22.4941C4.66356 24.3595 0.964001 28.2021 0.964001 32.6452C0.964001 38.8053 8.09915 43.8198 17 43.9951L16.5248 44C7.40108 44 0.005867 38.7575 0.005867 32.2903C0.005867 27.8493 3.49425 23.9859 8.63297 22.001C3.49034 20.0165 0 16.1521 0 11.7097C0 5.24253 7.39717 0 16.519 0L16.998 0.00485131L16.9765 0.00519783C8.08742 0.189201 0.964001 5.20026 0.964001 11.3548ZM3.01868 22.7333C2.46287 22.7333 2.01229 22.405 2.01229 22C2.01229 21.595 2.46287 21.2667 3.01868 21.2667C3.57449 21.2667 4.02507 21.595 4.02507 22C4.02507 22.405 3.57449 22.7333 3.01868 22.7333Z" fill="#FFD58C"/>
</g>
</svg>
