<svg width="18" height="18" viewBox="0 0 18 18" fill="none" xmlns="http://www.w3.org/2000/svg">
<path d="M9 12.2175C9.12 12.2175 9.2325 12.1986 9.3375 12.1608C9.4425 12.1236 9.54 12.06 9.63 11.97L11.97 9.63C12.135 9.465 12.2175 9.255 12.2175 9C12.2175 8.745 12.135 8.535 11.97 8.37C11.805 8.205 11.595 8.1225 11.34 8.1225C11.085 8.1225 10.875 8.205 10.71 8.37L9.9 9.18V6.3C9.9 6.045 9.8139 5.8311 9.6417 5.6583C9.4689 5.4861 9.255 5.4 9 5.4C8.745 5.4 8.5314 5.4861 8.3592 5.6583C8.1864 5.8311 8.1 6.045 8.1 6.3V9.18L7.29 8.37C7.125 8.205 6.915 8.1225 6.66 8.1225C6.405 8.1225 6.195 8.205 6.03 8.37C5.865 8.535 5.7825 8.745 5.7825 9C5.7825 9.255 5.865 9.465 6.03 9.63L8.37 11.97C8.46 12.06 8.5575 12.1236 8.6625 12.1608C8.7675 12.1986 8.88 12.2175 9 12.2175ZM9 18C7.755 18 6.585 17.7636 5.49 17.2908C4.395 16.8186 3.4425 16.1775 2.6325 15.3675C1.8225 14.5575 1.1814 13.605 0.7092 12.51C0.2364 11.415 0 10.245 0 9C0 7.755 0.2364 6.585 0.7092 5.49C1.1814 4.395 1.8225 3.4425 2.6325 2.6325C3.4425 1.8225 4.395 1.1811 5.49 0.7083C6.585 0.2361 7.755 0 9 0C10.245 0 11.415 0.2361 12.51 0.7083C13.605 1.1811 14.5575 1.8225 15.3675 2.6325C16.1775 3.4425 16.8186 4.395 17.2908 5.49C17.7636 6.585 18 7.755 18 9C18 10.245 17.7636 11.415 17.2908 12.51C16.8186 13.605 16.1775 14.5575 15.3675 15.3675C14.5575 16.1775 13.605 16.8186 12.51 17.2908C11.415 17.7636 10.245 18 9 18ZM9 16.2C10.995 16.2 12.6939 15.4989 14.0967 14.0967C15.4989 12.6939 16.2 10.995 16.2 9C16.2 7.005 15.4989 5.3061 14.0967 3.9033C12.6939 2.5011 10.995 1.8 9 1.8C7.005 1.8 5.3064 2.5011 3.9042 3.9033C2.5014 5.3061 1.8 7.005 1.8 9C1.8 10.995 2.5014 12.6939 3.9042 14.0967C5.3064 15.4989 7.005 16.2 9 16.2Z" fill="white"/>
</svg>
