<svg width="33" height="32" viewBox="0 0 33 32" fill="none" xmlns="http://www.w3.org/2000/svg">
<path id="Subtract" fill-rule="evenodd" clip-rule="evenodd" d="M16.9039 32C25.7405 32 32.9039 24.8366 32.9039 16C32.9039 7.16344 25.7405 0 16.9039 0C8.06737 0 0.903931 7.16344 0.903931 16C0.903931 24.8366 8.06737 32 16.9039 32ZM18.4242 9.28272C18.0281 8.8979 17.395 8.90707 17.0102 9.30322C16.6254 9.69936 16.6345 10.3325 17.0307 10.7173L21.4394 15L8.90393 15C8.35165 15 7.90393 15.4477 7.90393 16C7.90393 16.5523 8.35165 17 8.90393 17H21.4394L17.0307 21.2827C16.6345 21.6675 16.6254 22.3006 17.0102 22.6968C17.395 23.0929 18.0281 23.1021 18.4242 22.7173L24.6007 16.7173C24.7946 16.529 24.9039 16.2702 24.9039 16C24.9039 15.7298 24.7946 15.471 24.6007 15.2827L18.4242 9.28272Z" fill="white"/>
</svg>
