<?xml version="1.0" standalone="no"?><!DOCTYPE svg PUBLIC "-//W3C//DTD SVG 1.1//EN" "http://www.w3.org/Graphics/SVG/1.1/DTD/svg11.dtd"><svg class="icon" width="32px" height="27.44px" viewBox="0 0 1194 1024" version="1.1" xmlns="http://www.w3.org/2000/svg"><path fill="#2c2c2c" d="M86.186667 445.952h860.586666c0.085333 0 0.256-0.341333 0.085334-0.341333L622.250667 133.632A65.877333 65.877333 0 1 1 713.813333 38.4l442.026667 424.789333a66.304 66.304 0 0 1 0 95.146667l-444.416 427.008a65.706667 65.706667 0 0 1-93.354667-1.706667 66.048 66.048 0 0 1 1.792-93.354666l324.608-311.978667c0.170667-0.170667 0-0.341333-0.170666-0.341333H84.650667a66.048 66.048 0 0 1-65.792-61.952 66.986667 66.986667 0 0 1 67.328-70.144z"  /></svg>