<svg width="72" height="60" viewBox="0 0 72 60" fill="none" xmlns="http://www.w3.org/2000/svg">
<g id="Frame 1000003896">
<g id="Group 281884">
<path id="Subtract" fill-rule="evenodd" clip-rule="evenodd" d="M12.2143 38.0075C5.7133 34.0662 3.46697 25.6409 7.21388 18.96C10.9627 12.2758 19.3234 9.80808 26.0777 13.3052C30.0166 6.79976 38.4378 4.54545 45.1219 8.29411C51.8036 12.0415 54.2789 20.4026 50.7873 27.1545C50.7744 27.1795 50.7612 27.2043 50.7478 27.229C47.626 25.5322 43.7219 25.4516 40.4193 27.3583C35.4776 30.2114 33.7094 36.4614 36.3743 41.4624L37.8802 40.4356C37.8803 40.4359 37.8805 40.4363 37.8807 40.4366L36.3749 41.4635C36.4314 41.5697 36.523 41.7237 36.5487 41.767L36.5554 41.7784L39.6143 47.0765L37.8125 50.2892C37.3236 51.1609 36.2207 51.4712 35.349 50.9823L12.6404 38.2465C12.5928 38.2198 12.545 38.1937 12.4972 38.1677C12.4019 38.1156 12.3067 38.0637 12.2143 38.0075ZM40.644 45.2406L38.1226 40.8735C38.1058 40.8444 38.0886 40.8155 38.0715 40.7866C38.0373 40.7289 38.0031 40.6713 37.9718 40.6123C37.9407 40.554 37.9103 40.4954 37.8807 40.4366L46.7183 34.4097L40.644 45.2406ZM46.7189 34.4087L37.8802 40.4356C35.8061 36.3241 37.2866 31.2565 41.3241 28.9255C44.0529 27.35 47.2777 27.4121 49.8607 28.8067L46.7189 34.4087Z" fill="white"/>
<path id="Union" d="M41.1875 28.7841C37.0407 31.1704 35.5578 36.3986 37.7932 40.5788C37.8408 40.6681 37.8948 40.7542 37.9459 40.8424L45.7333 54.2865C46.2393 55.16 47.3599 55.4593 48.2363 54.955L61.7245 47.193C61.8133 47.1419 61.9029 47.0943 61.989 47.0408C66.0213 44.5352 67.3606 39.2685 64.9661 35.1347C62.5708 30.9995 57.3251 29.527 53.1311 31.7582C50.6177 27.7354 45.3365 26.3965 41.1875 28.7841Z" fill="#FFDA8B"/>
<path id="Vector" d="M44.5464 42.013L45.0019 44.3999L45.4575 42.013L46.5321 42.7836L45.8313 41.6019L48 41.101L45.8274 40.5979L46.5282 39.4183L45.4536 40.189L44.9981 37.7999L44.5425 40.189L43.4698 39.4183L44.1707 40.5979L42 41.101C42 41.101 43.3024 41.4007 44.1707 41.6019L43.4698 42.7836L44.5464 42.013Z" fill="white"/>
<path id="Vector_2" d="M8.45553 7.97904L9.00219 10.8L9.54885 7.97904L10.8384 8.88984L9.99739 7.49328L12.5999 6.90126L9.99271 6.30671L10.8337 4.91268L9.54418 5.82348L8.99752 3L8.45086 5.82348L7.16364 4.91268L8.00466 6.30671L5.39985 6.90126C5.39985 6.90126 6.96274 7.25546 8.00466 7.49328L7.16364 8.88984L8.45553 7.97904Z" fill="white"/>
<path id="Vector_3" d="M59.8918 20.6301L60.3018 22.8L60.7117 20.6301L61.6789 21.3307L61.0482 20.2564L63 19.801L61.0446 19.3437L61.6754 18.2713L60.7082 18.972L60.2982 16.8L59.8883 18.972L58.9228 18.2713L59.5536 19.3437L57.6 19.801C57.6 19.801 58.7722 20.0735 59.5536 20.2564L58.9228 21.3307L59.8918 20.6301Z" fill="white"/>
</g>
</g>
</svg>
