<?xml version="1.0" standalone="no"?><!DOCTYPE svg PUBLIC "-//W3C//DTD SVG 1.1//EN" "http://www.w3.org/Graphics/SVG/1.1/DTD/svg11.dtd"><svg class="icon" width="16px" height="16.00px" viewBox="0 0 1024 1024" version="1.1" xmlns="http://www.w3.org/2000/svg"><path fill="#9747FF" d="M896.004 447.996H282.486l146.861-146.855c24.885-24.883 24.885-65.602 0-90.485-24.882-24.881-65.599-24.881-90.482 0L85.574 463.937a64.641 64.641 0 0 0-2.914 2.719c-12.467 12.466-18.686 28.907-18.661 45.34-0.025 16.433 6.194 32.874 18.661 45.34a64.07 64.07 0 0 0 2.914 2.719l253.292 253.281c24.882 24.881 65.599 24.881 90.482 0 24.885-24.883 24.885-65.602 0-90.485L282.486 575.996h613.517c35.2 0 64-28.8 64-64 0.001-35.2-28.799-64-63.999-64z" /></svg>