<svg width="67" height="67" viewBox="0 0 67 67" fill="none" xmlns="http://www.w3.org/2000/svg">
<g id="boy">
<path id="Union" fill-rule="evenodd" clip-rule="evenodd" d="M50.1818 7.83362C49.8825 6.71667 48.7344 6.05383 47.6175 6.35311L30.4568 10.9513C29.3399 11.2506 28.677 12.3987 28.9763 13.5156C29.2756 14.6326 30.4237 15.2954 31.5406 14.9961L43.8188 11.7062L36.8668 23.7474C28.1865 19.9385 17.8462 23.192 12.9965 31.592C7.79292 40.6048 10.8809 52.1295 19.8938 57.333C28.9066 62.5366 40.4313 59.4486 45.6348 50.4357C50.4845 42.0358 48.132 31.454 40.4933 25.8412L47.4453 13.7999L50.7352 26.0781C51.0345 27.1951 52.1825 27.8579 53.2995 27.5586C54.4164 27.2593 55.0793 26.1113 54.78 24.9943L50.1818 7.83362ZM36.6438 28.3212C29.6338 24.274 20.6702 26.6758 16.623 33.6857C12.5757 40.6957 14.9775 49.6593 21.9875 53.7065C28.9975 57.7537 37.9611 55.352 42.0083 48.342C46.0555 41.332 43.6537 32.3684 36.6438 28.3212Z" fill="#7F6463"/>
</g>
</svg>
