<svg width="67" height="67" viewBox="0 0 67 67" fill="none" xmlns="http://www.w3.org/2000/svg">
<g id="girl">
<path id="Union" fill-rule="evenodd" clip-rule="evenodd" d="M29.7811 42.3946C38.4613 46.2035 48.8016 42.95 53.6513 34.55C58.8549 25.5372 55.7669 14.0125 46.7541 8.80898C37.7412 3.60542 26.2166 6.69344 21.013 15.7063C16.1633 24.1062 18.5158 34.688 26.1546 40.3008L20.8627 49.4666L13.6097 45.2791C12.6083 44.701 11.3278 45.0441 10.7496 46.0455C10.1714 47.0469 10.5145 48.3274 11.516 48.9056L18.7689 53.0931L16.6752 56.7196C16.097 57.721 16.4401 59.0015 17.4416 59.5797C18.443 60.1579 19.7235 59.8148 20.3017 58.8134L22.3954 55.1869L29.6484 59.3744C30.6498 59.9525 31.9303 59.6094 32.5085 58.608C33.0867 57.6066 32.7436 56.3261 31.7421 55.7479L24.4892 51.5604L29.7811 42.3946ZM50.0249 32.4563C45.9776 39.4662 37.014 41.868 30.0041 37.8208C22.9941 33.7736 20.5923 24.81 24.6395 17.8C28.6867 10.79 37.6503 8.38825 44.6603 12.4355C51.6703 16.4827 54.0721 25.4463 50.0249 32.4563Z" fill="#693878"/>
</g>
</svg>
