<svg width="344" height="60" viewBox="0 0 344 60" fill="none" xmlns="http://www.w3.org/2000/svg">
<path d="M26.0156 15.0914C15.7031 7.46155 7.89063 10.8134 5.27344 13.443C10.9922 2.51625 26.0938 8.89019 32.9297 13.443C37.8799 16.7399 41.8359 15.7575 43.9453 15.0914C47.2266 14.0553 46.4844 10.8919 45.7031 9.43966C38.9531 1.05619 26.3281 0.76576 20.8594 1.66847C31.2656 -2.28777 42.2076 1.66847 45.7031 4.49436C53.8594 11.0881 51.0547 17.1324 48.6328 19.3303C41.7891 25.0762 32.9297 20.207 26.0156 15.0914Z" fill="white"/>
<path d="M30 34.0484C10.8984 20.5077 1.875 28.7107 0 34.0484C4.21875 13.7963 21.4844 19.3303 28.8281 24.8643C49.2188 38.5228 57.6563 32.3608 60 27.6902C53.4783 45.1165 33.913 36.8223 30 34.0484Z" fill="white"/>
<path d="M15.2344 51.7102C20.9532 58.9633 33.711 59.2067 39.3751 58.4217C35.625 60.5411 27.5391 60.3056 21.4454 59.0104C7.85161 54.7716 7.03127 47.4714 9.25786 43.2326C13.0102 36.0891 23.8226 38.405 28.0079 41.3487C45.5859 53.7119 50.3907 50.6505 54.8438 47.0004C47.9297 58.6572 33.1641 49.8809 28.0079 47.4714C22.8516 45.0619 19.0235 44.9988 17.3438 45.1165C11.9063 45.6817 13.6719 49.7478 15.2344 51.7102Z" fill="white"/>
<path d="M80.6312 30.7415C79.5993 32.3937 79.0834 34.0845 79.0834 35.8141C79.0834 37.6986 79.767 39.4153 81.1342 40.9642C81.8823 41.8419 82.8238 42.526 83.9588 43.0165C85.1197 43.5069 86.3837 43.7522 87.7508 43.7522C89.118 43.7522 90.3433 43.494 91.4268 42.9777C93.5936 41.9193 94.677 40.1897 94.677 37.789C94.677 36.8854 94.3675 35.9303 93.7484 34.9235C93.1551 33.9167 92.2522 33.0132 91.0398 32.213L84.4619 27.7986C81.9081 26.1981 80.6312 24.1329 80.6312 21.6031C80.6312 21.3449 80.6441 21.0868 80.6699 20.8287C80.8246 18.8409 81.6114 17.2275 83.0302 15.9884C84.4748 14.7235 86.3966 14.091 88.7956 14.091C90.2659 14.091 92.0459 14.2201 94.1353 14.4782H96.5343L96.0313 20.1704H95.6831C95.6573 18.828 95.1414 17.7567 94.1353 16.9564C93.1293 16.1304 91.8008 15.7173 90.1499 15.7173C88.1378 15.7173 86.6803 16.324 85.7775 17.5373C85.3389 18.1568 85.1197 18.828 85.1197 19.5508C85.1197 20.2736 85.3389 20.8932 85.7775 21.4095C86.216 21.9 86.9125 22.4421 87.8669 23.0358L95.1027 27.7599C96.573 28.7151 97.7209 29.838 98.5464 31.1288C99.5267 32.6518 100.017 34.2136 100.017 35.8141C100.017 36.8467 99.7975 37.9439 99.359 39.1055C98.9462 40.2414 98.2498 41.2998 97.2695 42.2807C96.3151 43.2617 95.0769 44.062 93.5549 44.6815C92.033 45.3011 90.3433 45.6108 88.486 45.6108C86.6545 45.6108 84.9907 45.2882 83.4945 44.6428C80.7344 43.4811 78.9802 41.4547 78.2322 38.5634C78.0774 37.9439 78 37.2985 78 36.6273C78 34.4589 78.761 32.4066 80.2829 30.4705L80.6312 30.7415Z" fill="white"/>
<path d="M115.535 28.2246C115.535 25.0752 114.438 23.5005 112.246 23.5005C109.95 23.5005 108.557 25.514 108.067 29.5411H115.457C115.509 29.0248 115.535 28.586 115.535 28.2246ZM111.898 42.1646C109.137 42.1646 106.893 41.2611 105.165 39.454C103.462 37.647 102.611 35.2591 102.611 32.2904C102.611 29.3217 103.501 26.9338 105.281 25.1268C107.087 23.3198 109.37 22.4163 112.13 22.4163C114.89 22.4163 116.954 23.01 118.321 24.1975C119.688 25.3591 120.372 26.9855 120.372 29.0765C120.372 29.6702 120.32 30.2898 120.217 30.9351H107.951V32.2904C107.951 35.1817 108.312 37.3759 109.034 38.8732C109.757 40.3446 110.84 41.0803 112.285 41.0803C113.755 41.0803 115.083 40.7835 116.27 40.1897C117.482 39.5702 118.424 38.7054 119.095 37.5954C119.662 37.7761 119.946 38.0471 119.946 38.4085C119.946 39.0539 119.34 39.8025 118.127 40.6544C117.534 41.0674 116.683 41.4288 115.573 41.7386C114.49 42.0226 113.265 42.1646 111.898 42.1646Z" fill="white"/>
<path d="M136.28 28.2246C136.28 25.0752 135.183 23.5005 132.991 23.5005C130.695 23.5005 129.302 25.514 128.812 29.5411H136.202C136.254 29.0248 136.28 28.586 136.28 28.2246ZM132.643 42.1646C129.882 42.1646 127.638 41.2611 125.91 39.454C124.207 37.647 123.356 35.2591 123.356 32.2904C123.356 29.3217 124.246 26.9338 126.026 25.1268C127.832 23.3198 130.115 22.4163 132.875 22.4163C135.635 22.4163 137.699 23.01 139.066 24.1975C140.433 25.3591 141.117 26.9855 141.117 29.0765C141.117 29.6702 141.065 30.2898 140.962 30.9351H128.696V32.2904C128.696 35.1817 129.057 37.3759 129.779 38.8732C130.502 40.3446 131.585 41.0803 133.03 41.0803C134.5 41.0803 135.828 40.7835 137.015 40.1897C138.227 39.5702 139.169 38.7054 139.84 37.5954C140.407 37.7761 140.691 38.0471 140.691 38.4085C140.691 39.0539 140.085 39.8025 138.872 40.6544C138.279 41.0674 137.428 41.4288 136.319 41.7386C135.235 42.0226 134.01 42.1646 132.643 42.1646Z" fill="white"/>
<path d="M143.482 41.7386V40.1123L145.146 39.8412C145.636 39.7638 145.881 39.4798 145.881 38.9894V19.8993C145.881 19.4088 145.636 19.1249 145.146 19.0474L143.172 18.7764V17.2662C144.05 17.0081 145.017 16.8145 146.074 16.6854C147.158 16.5305 148.151 16.4401 149.054 16.4143L149.557 16.879V38.9894C149.557 39.4798 149.802 39.7638 150.292 39.8412L151.917 40.1123V41.7386H143.482ZM156.677 41.7386C156.264 41.7386 155.903 41.4934 155.593 41.0029C155.309 40.5124 154.974 39.9058 154.587 39.183L153.117 36.2401C152.833 35.698 152.562 35.1946 152.304 34.7299C152.046 34.2394 151.762 33.8006 151.453 33.4134L153.929 31.0126C154.368 31.5031 154.742 31.9935 155.051 32.484C155.361 32.9487 155.696 33.5166 156.057 34.1878L158.766 38.8732C158.895 39.1313 159.037 39.3249 159.192 39.454C159.372 39.5831 159.579 39.6734 159.811 39.7251L161.475 40.1123V41.7386H156.677ZM149.015 36.9758L148.783 34.8074L156.29 26.7144L156.406 27.7212L152.807 27.0629V25.5528H160.701V27.0629L159.037 27.4889C158.702 27.5663 158.444 27.6438 158.263 27.7212C158.108 27.7728 157.928 27.889 157.721 28.0697L149.015 36.9758Z" fill="white"/>
<path d="M190.419 41.3514H190.768V41.7386H178.424V41.3514H178.773C179.34 41.3514 179.753 41.1836 180.011 40.848C180.295 40.4866 180.436 40.151 180.436 39.8412C180.436 39.5315 180.372 39.2217 180.243 38.9119L178.347 34.1491H169.293L167.281 38.9119C167.152 39.2475 167.087 39.5702 167.087 39.88C167.087 40.1639 167.216 40.4866 167.474 40.848C167.758 41.1836 168.196 41.3514 168.79 41.3514H169.099V41.7386H160.819V41.3514H161.167C161.76 41.3514 162.353 41.1707 162.947 40.8093C163.54 40.4479 164.03 39.9058 164.417 39.183L173.355 18.9313C174.568 16.3756 175.213 14.6847 175.29 13.8587H175.638L187.13 39.1055C187.517 39.8541 188.007 40.4221 188.601 40.8093C189.194 41.1707 189.8 41.3514 190.419 41.3514ZM169.95 32.5227H177.689L173.936 22.9971L169.95 32.5227Z" fill="white"/>
<path d="M198.267 41.1965C199.17 41.1965 199.918 40.9126 200.512 40.3446C201.105 39.7509 201.401 38.7957 201.401 37.4792C201.401 36.4208 200.963 35.6205 200.086 35.0784C199.415 34.6654 198.551 34.2652 197.493 33.878C196.462 33.465 195.662 33.1165 195.094 32.8325C194.553 32.5486 193.946 32.1742 193.276 31.7096C191.96 30.7803 191.302 29.5153 191.302 27.9148C191.302 26.3143 191.96 24.9977 193.276 23.9651C194.617 22.9326 196.565 22.4163 199.119 22.4163C200.718 22.4163 202.072 22.7648 203.181 23.4618C204.291 24.1329 204.845 24.9848 204.845 26.0174C204.845 27.05 204.407 27.7986 203.53 28.2633C203.117 28.4698 202.704 28.5731 202.291 28.5731L200.898 28.1471C201.053 27.3469 201.131 26.6241 201.131 25.9787C201.131 25.3075 200.924 24.7138 200.512 24.1975C200.099 23.6554 199.48 23.3843 198.654 23.3843C196.642 23.3843 195.636 24.5976 195.636 27.0242C195.636 28.1342 196.062 28.9603 196.913 29.5024C197.558 29.9413 198.383 30.3414 199.389 30.7028C200.395 31.0384 201.182 31.3353 201.75 31.5934C202.343 31.8516 202.975 32.213 203.646 32.6776C204.987 33.5553 205.658 34.859 205.658 36.5886C205.658 38.2924 204.948 39.6476 203.53 40.6544C202.111 41.6612 200.241 42.1646 197.919 42.1646C195.339 42.1646 193.431 41.7386 192.192 40.8867C191.47 40.3704 191.109 39.738 191.109 38.9894C191.109 38.2407 191.354 37.6341 191.844 37.1694C192.36 36.7047 193.069 36.4595 193.972 36.4337C194.153 39.6089 195.585 41.1965 198.267 41.1965Z" fill="white"/>
<path d="M215.337 42.1646C212.861 42.1646 211.287 41.2998 210.616 39.5702C210.333 38.8216 210.191 37.8793 210.191 36.7435C210.191 32.4582 210.255 28.1601 210.384 23.849H207.753V22.8422H210.423L210.462 17.15H215.414L215.298 22.8422H220.715V23.849H215.298L215.221 26.9855C215.144 31.1675 215.105 35.001 215.105 38.486C215.105 39.4927 215.208 40.1768 215.414 40.5382C215.647 40.8996 216.046 41.0803 216.614 41.0803C217.207 41.0803 217.852 40.6802 218.549 39.88C219.271 39.0539 219.787 38.0729 220.096 36.9371C220.612 36.9371 220.87 37.1178 220.87 37.4792C220.87 37.5566 220.857 37.647 220.832 37.7502C220.419 39.0926 219.709 40.1639 218.703 40.9642C217.723 41.7644 216.601 42.1646 215.337 42.1646Z" fill="white"/>
<path d="M229.851 27.4114C230.289 26.0174 231.089 24.8299 232.25 23.849C233.436 22.868 234.507 22.3775 235.461 22.3775C236.442 22.3775 237.099 22.6228 237.435 23.1133C237.77 23.5779 237.938 23.9651 237.938 24.2749C237.938 25.3333 237.551 26.0949 236.777 26.5595C236.261 26.1465 235.487 25.94 234.455 25.94C233.449 25.94 232.443 26.2627 231.437 26.908C230.431 27.5276 229.928 28.2117 229.928 28.9603V40.6157L233.411 40.848V41.7386H222.615V40.848L225.169 40.6544V24.12L222.035 23.9651V23.0745L229.928 22.6486L229.696 27.4114H229.851Z" fill="white"/>
<path d="M256.889 39.3766C255.084 41.2352 252.62 42.1646 249.499 42.1646C246.377 42.1646 243.914 41.2352 242.108 39.3766C240.303 37.5179 239.4 35.1559 239.4 32.2904C239.4 29.425 240.303 27.0629 242.108 25.2043C243.914 23.3456 246.377 22.4163 249.499 22.4163C252.62 22.4163 255.084 23.3456 256.889 25.2043C258.695 27.0629 259.598 29.425 259.598 32.2904C259.598 35.1559 258.695 37.5179 256.889 39.3766ZM244.778 32.2904C244.778 38.2536 246.352 41.2352 249.499 41.2352C252.646 41.2352 254.219 38.2536 254.219 32.2904C254.219 29.3733 253.871 27.1662 253.175 25.6689C252.478 24.1459 251.253 23.3843 249.499 23.3843C247.745 23.3843 246.519 24.1459 245.823 25.6689C245.126 27.1662 244.778 29.3733 244.778 32.2904Z" fill="white"/>
<path d="M271.849 41.7386H261.866V40.848L264.381 40.6157V13.9361L261.053 13.8199V12.8906L269.334 12V40.6157L271.849 40.848V41.7386Z" fill="white"/>
<path d="M291.615 39.3766C289.81 41.2352 287.346 42.1646 284.225 42.1646C281.104 42.1646 278.64 41.2352 276.834 39.3766C275.029 37.5179 274.126 35.1559 274.126 32.2904C274.126 29.425 275.029 27.0629 276.834 25.2043C278.64 23.3456 281.104 22.4163 284.225 22.4163C287.346 22.4163 289.81 23.3456 291.615 25.2043C293.421 27.0629 294.324 29.425 294.324 32.2904C294.324 35.1559 293.421 37.5179 291.615 39.3766ZM279.504 32.2904C279.504 38.2536 281.078 41.2352 284.225 41.2352C287.372 41.2352 288.946 38.2536 288.946 32.2904C288.946 29.3733 288.597 27.1662 287.901 25.6689C287.204 24.1459 285.979 23.3843 284.225 23.3843C282.471 23.3843 281.246 24.1459 280.549 25.6689C279.853 27.1662 279.504 29.3733 279.504 32.2904Z" fill="white"/>
<path d="M308.819 22.6099C309.98 22.171 310.56 20.9835 310.56 19.0474C310.56 18.5311 310.496 18.0536 310.367 17.6147C310.805 17.3049 311.244 17.15 311.682 17.15C312.121 17.15 312.534 17.2275 312.921 17.3824C313.849 17.7696 314.314 18.4279 314.314 19.3572C314.314 20.2607 313.914 21.0481 313.114 21.7193C312.34 22.3904 311.27 22.8164 309.903 22.9971C311.45 23.5134 312.637 24.3266 313.462 25.4366C314.288 26.5208 314.701 27.8761 314.701 29.5024C314.701 31.1029 313.901 32.6002 312.302 33.9942C310.702 35.3624 308.78 36.0465 306.536 36.0465C304.292 36.0465 303.17 36.6531 303.17 37.8664C303.17 38.4602 303.583 38.8732 304.408 39.1055C305.259 39.312 306.923 39.5315 309.4 39.7638C311.876 39.9703 313.746 40.435 315.01 41.1578C316.274 41.8548 316.906 42.9777 316.906 44.5266C316.906 46.5402 315.913 48.2569 313.927 49.6767C311.966 51.0965 309.4 51.8064 306.227 51.8064C303.08 51.8064 300.758 51.3159 299.262 50.335C297.766 49.3798 297.018 48.102 297.018 46.5015C297.018 45.4689 297.392 44.475 298.14 43.5198C298.888 42.5647 299.984 41.8935 301.429 41.5063C299.623 40.8351 298.72 39.8929 298.72 38.6796C298.72 37.8277 299.159 37.1307 300.036 36.5886C300.913 36.0465 301.893 35.7625 302.976 35.7367C301.248 35.272 299.907 34.4718 298.952 33.3359C298.024 32.1742 297.559 30.819 297.559 29.2701C297.559 27.2823 298.346 25.6431 299.92 24.3524C301.493 23.0616 303.608 22.4163 306.265 22.4163C307.194 22.4163 308.045 22.4808 308.819 22.6099ZM301.158 46.0755C301.158 47.4953 301.583 48.5924 302.435 49.3669C303.286 50.1672 304.563 50.5673 306.265 50.5673C307.994 50.5673 309.49 50.1155 310.754 49.212C312.044 48.3085 312.689 47.2372 312.689 45.9981C312.714 44.759 312.366 43.9587 311.644 43.5973C310.947 43.2359 309.683 42.939 307.852 42.7067L307.387 42.668C305.35 42.4098 303.931 42.2162 303.131 42.0871C302.564 42.3969 302.086 42.9261 301.699 43.6747C301.338 44.4234 301.158 45.2236 301.158 46.0755ZM305.994 35.272C307.207 35.272 308.11 34.717 308.703 33.607C309.296 32.4969 309.593 31.0513 309.593 29.2701C309.593 25.2688 308.484 23.2681 306.265 23.2681C305.053 23.2681 304.15 23.8103 303.557 24.8945C302.963 25.9529 302.667 27.4114 302.667 29.2701C302.667 33.2714 303.776 35.272 305.994 35.272Z" fill="white"/>
<path d="M328.609 22.8422H336V23.8103L333.291 24.5847L327.023 41.7386C325.94 44.5783 324.792 46.9016 323.579 48.7086C322.109 50.9029 320.329 52 318.24 52C318.085 52 317.917 51.9871 317.737 51.9613C316.885 51.9613 316.202 51.7031 315.686 51.1868C315.17 50.6964 314.912 50.0381 314.912 49.212C314.912 48.4117 315.273 47.5986 315.995 46.7725C316.847 47.7277 317.775 48.2052 318.781 48.2052C320.2 48.2052 321.4 47.676 322.38 46.6176C323.36 45.585 324.276 43.9587 325.127 41.7386L317.698 24.0426L315.763 23.6554V22.8422H324.701V23.6554L322.418 24.0039L327.371 36.6273L331.666 24.5847L328.609 23.8103V22.8422Z" fill="white"/>
</svg>
