<svg width="20" height="20" viewBox="0 0 20 20" fill="none" xmlns="http://www.w3.org/2000/svg">
<g id="Frame 1000003881">
<g id="Vector">
<path d="M0 1.5C0 1.22386 0.223858 1 0.5 1H19.5C19.7761 1 20 1.22386 20 1.5V3.5C20 3.77614 19.7761 4 19.5 4H0.5C0.223857 4 0 3.77614 0 3.5V1.5Z" fill="white"/>
<path d="M4 9C4 8.72386 4.22386 8.5 4.5 8.5H19.5C19.7761 8.5 20 8.72386 20 9V11C20 11.2761 19.7761 11.5 19.5 11.5H4.5C4.22386 11.5 4 11.2761 4 11V9Z" fill="white"/>
<path d="M0 16.5C0 16.2239 0.223858 16 0.5 16H19.5C19.7761 16 20 16.2239 20 16.5V18.5C20 18.7761 19.7761 19 19.5 19H0.5C0.223857 19 0 18.7761 0 18.5V16.5Z" fill="white"/>
</g>
</g>
</svg>
