<svg width="18" height="17" viewBox="0 0 18 17" fill="none" xmlns="http://www.w3.org/2000/svg">
    <path
        d="M6.0542 0.5V0.5C6.0542 1.05536 6.51356 1.50557 7.08021 1.50557H7.87257C8.74679 1.50869 9.45491 2.2027 9.45888 3.0595V3.56579"
        stroke="#FFFFFF" stroke-width="1.5" stroke-linecap="round" stroke-linejoin="round" />
    <path fill-rule="evenodd" clip-rule="evenodd"
        d="M12.3212 15.4719C10.0673 15.5101 7.85477 15.5086 5.67956 15.4719C3.26513 15.4719 1.5 13.7498 1.5 11.3834V7.89627C1.5 5.52995 3.26513 3.80778 5.67956 3.80778C7.8667 3.77039 10.0809 3.77117 12.3212 3.80778C14.7357 3.80778 16.5 5.53073 16.5 7.89627V11.3834C16.5 13.7498 14.7357 15.4719 12.3212 15.4719Z"
        fill="#FFFFFF" stroke="#FFFFFF" stroke-width="1.5" stroke-linecap="round" stroke-linejoin="round" />
    <path d="M6.6362 8.2355V11.0443" stroke="#2F3136" stroke-width="1.5" stroke-linecap="round"
        stroke-linejoin="round" />
    <path d="M8.06928 9.64003H5.20343" stroke="#2F3136" stroke-width="1.5" stroke-linecap="round"
        stroke-linejoin="round" />
    <path d="M11.5246 8.32103H11.4443" stroke="#2F3136" stroke-width="1.5" stroke-linecap="round"
        stroke-linejoin="round" />
    <path d="M12.8847 11.0019H12.8044" stroke="#2F3136" stroke-width="1.5" stroke-linecap="round"
        stroke-linejoin="round" />
</svg>