<svg width="18" height="18" viewBox="0 0 18 18" fill="none" xmlns="http://www.w3.org/2000/svg">
<path fill-rule="evenodd" clip-rule="evenodd" d="M7.69118 1.04025L8.63618 1.60725C9.83492 2.31557 10.7558 3.41211 11.2462 4.71525C11.4127 4.34025 11.6107 3.9765 11.7944 3.609L12.5302 4.34475C14.1817 5.99625 15.7499 8.47125 15.7499 10.875C15.7499 14.0985 13.7624 16.1423 10.5824 16.4955L9.53993 16.611L9.76793 15.5873C9.94568 14.7863 9.97793 14.2628 9.94043 13.896C9.89543 13.4348 9.67643 13.0725 9.40343 12.7125C9.14243 12.3675 8.88368 12.0218 8.67668 11.64C7.82543 12.3128 7.49543 12.9203 7.38968 13.4205C7.25468 14.061 7.44593 14.7158 7.79543 15.4148L8.41193 16.6478L7.04243 16.4955C5.11043 16.281 3.20693 14.9903 2.45693 13.107C1.67318 11.1368 2.22743 8.7525 4.75943 6.558C6.43943 5.10225 7.32893 3.2145 7.69118 1.04025ZM8.69018 3.51525C8.11868 5.12025 7.02143 6.58275 5.74118 7.692C3.55793 9.58425 3.36218 11.325 3.85118 12.552C4.21493 13.467 5.00018 14.2193 5.93093 14.646C5.82153 14.1407 5.81847 13.6181 5.92193 13.1115C6.16643 11.952 7.00043 10.8653 8.60243 9.864L9.41018 9.35925L9.71168 10.263C9.97568 11.055 10.5232 11.6153 10.9514 12.3105C11.4224 13.0755 11.5124 13.953 11.4164 14.829C13.3814 14.3378 14.2499 12.8475 14.2499 10.875C14.2499 9.2085 13.2449 7.5735 12.2474 6.2955C11.8364 7.2165 10.9702 7.5405 10.1249 7.9635V6.75C10.1249 5.72325 9.70718 4.4715 8.69018 3.516V3.51525Z" fill="#7A78FF"/>
</svg>
