<svg width="17" height="16" viewBox="0 0 17 16" fill="none" xmlns="http://www.w3.org/2000/svg">
<path d="M17 7.99618L15.1145 5.871L15.3773 3.05781L12.5877 2.43096L11.1273 0L8.5 1.1161L5.87273 0L4.41227 2.43096L1.62273 3.05017L1.88545 5.86335L0 7.99618L1.88545 10.1214L1.62273 12.9422L4.41227 13.569L5.87273 16L8.5 14.8763L11.1273 15.9924L12.5877 13.5614L15.3773 12.9345L15.1145 10.1214L17 7.99618ZM13.515 9.60917L13.7159 11.742L11.5986 12.216L10.4936 14.0583L8.5 13.2097L6.50636 14.0583L5.40136 12.216L3.28409 11.742L3.485 9.60153L2.05545 7.99618L3.485 6.37554L3.28409 4.25036L5.40136 3.78404L6.50636 1.94171L8.5 2.78261L10.4936 1.93407L11.5986 3.7764L13.7159 4.25036L13.515 6.38318L14.9445 7.99618L13.515 9.60917ZM7.72727 10.2895H9.27273V11.8184H7.72727V10.2895ZM7.72727 4.17391H9.27273V8.76063H7.72727V4.17391Z" fill="#aaabbd"/>
</svg>
