<svg width="16" height="16" viewBox="0 0 16 16" fill="none" xmlns="http://www.w3.org/2000/svg">
<path fill-rule="evenodd" clip-rule="evenodd" d="M7.50986 1.69366e-08C6.31224 0.000102043 5.132 0.286593 4.06763 0.83557C3.00325 1.38455 2.08559 2.18009 1.39122 3.15583C0.696847 4.13157 0.245891 5.25921 0.0759755 6.44467C-0.0939398 7.63013 0.0221129 8.83904 0.414452 9.97052C0.80679 11.102 1.46404 12.1233 2.33136 12.9491C3.19868 13.7749 4.25093 14.3814 5.4003 14.7179C6.54968 15.0543 7.76287 15.1111 8.93864 14.8834C10.1144 14.6556 11.2187 14.1501 12.1593 13.4088L14.5026 15.752C14.6692 15.9129 14.8924 16.002 15.1241 16C15.3558 15.998 15.5774 15.905 15.7412 15.7412C15.905 15.5774 15.998 15.3558 16 15.1241C16.002 14.8925 15.9129 14.6693 15.752 14.5026L13.4087 12.1595C14.2817 11.052 14.8252 9.7212 14.9771 8.31929C15.1291 6.91738 14.8832 5.50102 14.2677 4.2323C13.6523 2.96358 12.692 1.89377 11.4969 1.14529C10.3017 0.396809 8.92003 -9.46668e-05 7.50986 1.69366e-08ZM1.76654 7.5102C1.76654 5.98703 2.37164 4.52626 3.44872 3.44922C4.5258 2.37218 5.98664 1.76711 7.50986 1.76711C9.03308 1.76711 10.4939 2.37218 11.571 3.44922C12.6481 4.52626 13.2532 5.98703 13.2532 7.5102C13.2532 9.03336 12.6481 10.4941 11.571 11.5712C10.4939 12.6482 9.03308 13.2533 7.50986 13.2533C5.98664 13.2533 4.5258 12.6482 3.44872 11.5712C2.37164 10.4941 1.76654 9.03336 1.76654 7.5102Z" fill="#aaabbd"/>
</svg>
