<svg width="30" height="30" viewBox="0 0 30 30" fill="none" xmlns="http://www.w3.org/2000/svg">
<g id="tag/2023">
<path id="Subtract" fill-rule="evenodd" clip-rule="evenodd" d="M13.07 1.64736C13.3895 0.784049 14.6105 0.784051 14.93 1.64736L16.7028 6.43845C17.6341 8.95513 19.5417 10.9781 21.9781 12.0599C21.4054 12.398 20.9164 12.935 20.6593 13.6297L20.4244 14.2645L19.8405 13.992C17.712 12.9987 16.0012 11.2878 15.0079 9.15942L14 6.99988L12.9921 9.15942C11.9988 11.2878 10.288 12.9987 8.15954 13.992L6 14.9999L8.15954 16.0077C10.288 17.0011 11.9988 18.7119 12.9921 20.8403L14 22.9999L14.3393 22.273C14.6088 22.7358 15.0389 23.1221 15.6297 23.3407L16.6454 23.7166L14.93 28.3524C14.6105 29.2157 13.3895 29.2157 13.07 28.3524L11.2972 23.5613C10.2928 20.8471 8.1528 18.7071 5.43857 17.7027L0.647484 15.9299C-0.215829 15.6104 -0.215827 14.3893 0.647486 14.0699L5.43858 12.297C8.1528 11.2927 10.2928 9.15268 11.2972 6.43845L13.07 1.64736Z" fill="white"/>
<path id="Star 18" d="M26.4349 11.7232C26.4264 11.559 26.6267 11.4728 26.7401 11.5919L27.3693 12.2529C27.7257 12.6274 28.228 12.8274 28.7443 12.8006L29.6556 12.7532C29.8199 12.7447 29.9061 12.945 29.787 13.0584L29.126 13.6876C28.7515 14.0441 28.5514 14.5463 28.5783 15.0626L28.6256 15.9739C28.6342 16.1382 28.4338 16.2244 28.3204 16.1053L27.6912 15.4443C27.3348 15.0698 26.8325 14.8697 26.3163 14.8966L25.4049 14.944C25.2407 14.9525 25.1545 14.7521 25.2736 14.6388L25.9346 14.0096C26.309 13.6531 26.5091 13.1509 26.4823 12.6346L26.4349 11.7232Z" fill="#FFDA8B"/>
<path id="Star 16" d="M22.535 14.3237C22.6947 13.8921 23.3053 13.8921 23.465 14.3237L24.3514 16.7193C24.8536 18.0764 25.9236 19.1464 27.2807 19.6486L29.6763 20.535C30.1079 20.6947 30.1079 21.3053 29.6763 21.465L27.2807 22.3514C25.9236 22.8536 24.8536 23.9236 24.3514 25.2807L23.465 27.6763C23.3053 28.1079 22.6947 28.1079 22.535 27.6763L21.6486 25.2807C21.1464 23.9236 20.0764 22.8536 18.7193 22.3514L16.3237 21.465C15.8921 21.3053 15.8921 20.6947 16.3237 20.535L18.7193 19.6486C20.0764 19.1464 21.1464 18.0764 21.6486 16.7193L22.535 14.3237Z" fill="#FFDA8B"/>
</g>
</svg>
