<svg width="31" height="30" viewBox="0 0 31 30" fill="none" xmlns="http://www.w3.org/2000/svg">
<g id="tag/&#230;&#150;&#135;&#231;&#171;&#160;">
<g id="Group 281914">
<path id="Vector" d="M19.6646 14.7341C20.1125 14.6248 20.5426 14.5156 20.9547 14.4064C21.3131 14.3127 21.6804 14.2191 22.0567 14.1255C22.433 14.0318 22.7465 13.946 22.9974 13.868L22.6211 15.1086C22.5136 15.4519 22.415 15.7094 22.3254 15.8811C22.1463 16.3024 21.9357 16.6926 21.6938 17.0515C21.4519 17.4104 21.2235 17.7225 21.0084 17.9878C20.7576 18.2999 20.4978 18.5886 20.229 18.8539L16.923 19.72L19.6377 20.1414C19.2793 20.4067 18.8941 20.6798 18.4819 20.9607C18.1236 21.1948 17.7159 21.4405 17.259 21.698C16.8021 21.9555 16.3228 22.1935 15.821 22.412C15.3193 22.6305 14.7594 22.7436 14.1412 22.7514C13.523 22.7592 12.9362 22.7241 12.3807 22.6461C11.7356 22.568 11.0906 22.4354 10.4455 22.2481C10.6426 21.9828 10.8576 21.6863 11.0906 21.3586C11.2877 21.0777 11.5251 20.7461 11.8028 20.3638C12.0806 19.9814 12.3717 19.5562 12.6763 19.088C13.5364 17.824 14.3696 16.5833 15.176 15.3661C15.9823 14.1489 16.708 13.0487 17.3531 12.0655C18.0877 10.9263 18.7955 9.84956 19.4764 8.83521C18.6342 9.6779 17.7473 10.622 16.8155 11.6676C16.0092 12.5571 15.1133 13.6144 14.1277 14.8394C13.1422 16.0645 12.1388 17.4026 11.1174 18.8539C10.9024 19.1504 10.6605 19.4938 10.3917 19.8839C10.123 20.274 9.84075 20.6876 9.54509 21.1245C9.24944 21.5615 8.94483 22.0101 8.63125 22.4705C8.31768 22.9309 8.00859 23.3795 7.70397 23.8165C6.98723 24.8308 6.25258 25.892 5.5 27C5.51792 26.6723 5.58959 26.2509 5.71502 25.736C5.82253 25.299 6.00172 24.7528 6.25258 24.0974C6.50343 23.4419 6.8618 22.6695 7.32768 21.78C7.6323 21.2182 7.86524 20.7812 8.0265 20.4691C8.18777 20.157 8.3132 19.9151 8.40279 19.7434C8.49238 19.5562 8.56406 19.4313 8.61781 19.3689C8.52822 19.2753 8.5103 19.088 8.56406 18.8071C8.5999 18.5574 8.70293 18.1946 8.87315 17.7186C9.04338 17.2427 9.33455 16.5755 9.74668 15.7172C10.1588 14.8433 10.7008 13.9031 11.3728 12.8965C12.0447 11.89 12.8018 10.8912 13.6439 9.90028C14.4861 8.90933 15.4 7.94959 16.3855 7.02107C17.371 6.09254 18.3789 5.26935 19.4092 4.5515C20.4395 3.83365 21.4698 3.24454 22.5002 2.78418C23.5305 2.32381 24.5294 2.06242 25.497 2C25.5149 2.54619 25.4522 3.26795 25.3089 4.16526C25.1655 5.06258 24.9863 6.02232 24.7713 7.04447C24.5563 8.06663 24.3144 9.1044 24.0456 10.1578C23.7768 11.2111 23.517 12.167 23.2662 13.0253L19.6646 14.7341Z" fill="#FFDA8B"/>
<path id="Star 18" d="M26.2499 20.12C26.2731 19.9572 26.4863 19.9111 26.5747 20.0497L27.0651 20.8194C27.3429 21.2554 27.7973 21.5482 28.3091 21.6212L29.2126 21.7499C29.3754 21.7731 29.4215 21.9863 29.2828 22.0746L28.5132 22.565C28.0772 22.8428 27.7843 23.2973 27.7114 23.8091L27.5827 24.7125C27.5595 24.8753 27.3463 24.9214 27.2579 24.7827L26.7675 24.0131C26.4897 23.5771 26.0353 23.2842 25.5235 23.2113L24.62 23.0826C24.4572 23.0594 24.4111 22.8462 24.5498 22.7579L25.3194 22.2675C25.7554 21.9897 26.0483 21.5352 26.1212 21.0234L26.2499 20.12Z" fill="white"/>
<path id="Star 20" d="M5.62412 6.54179C5.65553 6.32129 5.94431 6.25886 6.064 6.4467L6.72822 7.48913C7.10452 8.07969 7.72003 8.47638 8.41329 8.57514L9.63701 8.74946C9.85751 8.78088 9.91994 9.06965 9.7321 9.18934L8.68966 9.85357C8.09911 10.2299 7.70241 10.8454 7.60366 11.5386L7.42933 12.7623C7.39792 12.9829 7.10914 13.0453 6.98945 12.8574L6.32523 11.815C5.94893 11.2244 5.33342 10.8278 4.64016 10.729L3.41645 10.5547C3.19594 10.5233 3.13351 10.2345 3.32135 10.1148L4.36379 9.45057C4.95435 9.07427 5.35104 8.45876 5.4498 7.76551L5.62412 6.54179Z" fill="white"/>
<path id="Vector 56 (Stroke)" fill-rule="evenodd" clip-rule="evenodd" d="M14.4528 29.9211C13.6375 30.0824 12.6979 30.0169 11.5468 29.5307C10.2734 28.9927 8.73425 28.8028 7.29524 28.8461C6.09721 28.8823 4.99504 29.0792 4.19904 29.3522C3.95831 29.4347 3.6867 29.3128 3.61108 29.0698V29.0698C3.54763 28.8659 3.64556 28.6455 3.84572 28.5711C4.73442 28.2407 5.96666 28.0159 7.27724 27.9764C8.77009 27.9314 10.4029 28.1256 11.785 28.7095C12.8327 29.152 13.6502 29.1982 14.3362 29.0625C15.0291 28.9254 15.61 28.5994 16.1954 28.2479C16.2446 28.2183 16.2941 28.1884 16.3437 28.1584C16.871 27.8398 17.4259 27.5045 18.0366 27.3553C18.7269 27.1867 19.4746 27.2554 20.3616 27.7559C21.741 28.5342 23.1842 28.7719 24.5828 28.8103C25.2823 28.8295 25.9661 28.7989 26.6247 28.7627C26.7237 28.7573 26.8224 28.7517 26.9205 28.7462C27.3129 28.724 27.6969 28.7024 28.065 28.6918C28.3052 28.6848 28.5 28.8798 28.5 29.1201V29.1201C28.5 29.3603 28.3052 29.5549 28.0651 29.562C27.714 29.5725 27.345 29.5933 26.9578 29.6151C26.8588 29.6207 26.7587 29.6263 26.6574 29.6319C25.9966 29.6681 25.292 29.7001 24.5664 29.6802C23.1146 29.6403 21.5607 29.393 20.0562 28.5441C19.3026 28.1188 18.7117 28.0781 18.1797 28.2081C17.6676 28.3332 17.1976 28.6165 16.652 28.9453C16.6074 28.9722 16.5623 28.9994 16.5166 29.0268C15.926 29.3815 15.2613 29.7612 14.4528 29.9211Z" fill="white"/>
</g>
</g>
</svg>
