<svg width="30" height="30" viewBox="0 0 30 30" fill="none" xmlns="http://www.w3.org/2000/svg">
<g id="tag/&#232;&#129;&#140;&#228;&#184;&#154;&#230;&#152;&#159;&#229;&#186;&#167;">
<path id="Subtract" fill-rule="evenodd" clip-rule="evenodd" d="M6.69565 4.52174C6.69565 2.57674 8.33079 1 10.3478 1H17.6522C19.6692 1 21.3043 2.57674 21.3043 4.52174V5.69565H24.9565C26.6374 5.69565 28 7.00943 28 8.63043V10.0349C26.5847 8.84341 24.3373 9.89677 24.4377 11.8268L24.4546 12.1522H23.8726C23.3125 11.9492 22.6875 11.9492 22.1274 12.1522H21.913V11.5652C21.913 11.2408 21.6405 10.9783 21.3043 10.9783H20.087C19.7508 10.9783 19.4783 11.2408 19.4783 11.5652V12.1522H8.52174V11.5652C8.52174 11.2408 8.24921 10.9783 7.91304 10.9783H6.69565C6.35948 10.9783 6.08696 11.2408 6.08696 11.5652V12.1522H0V8.63043C0 7.00943 1.36262 5.69565 3.04348 5.69565H6.69565V4.52174ZM19.5382 16.5154C19.4998 16.4384 19.4783 16.3521 19.4783 16.2609V13.913H8.52174V16.2609C8.52174 16.5853 8.24921 16.8478 7.91304 16.8478H6.69565C6.35948 16.8478 6.08696 16.5853 6.08696 16.2609V13.913H0V25.0652C0 26.6862 1.36262 28 3.04348 28H20.5223L19.7729 25.9747C19.4733 25.165 18.8349 24.5267 18.0252 24.2271L15.6297 23.3406C13.4568 22.5366 13.4568 19.4633 15.6297 18.6592L18.0252 17.7728C18.6632 17.5367 19.1949 17.0903 19.5382 16.5154ZM25.4946 27.9543C26.9188 27.7093 28 26.5091 28 25.0652V24.2177L27.9748 24.2271C27.1651 24.5267 26.5267 25.165 26.2271 25.9747L25.4946 27.9543ZM18.8696 4.52174V5.69565H9.13043V4.52174C9.13043 3.8734 9.67548 3.34783 10.3478 3.34783H17.6522C18.3245 3.34783 18.8696 3.8734 18.8696 4.52174Z" fill="white"/>
<path id="Star 18" d="M26.4349 11.7232C26.4264 11.559 26.6267 11.4728 26.7401 11.5919L27.3693 12.2529C27.7257 12.6274 28.228 12.8274 28.7443 12.8006L29.6556 12.7532C29.8199 12.7447 29.9061 12.945 29.787 13.0584L29.126 13.6876C28.7515 14.0441 28.5514 14.5463 28.5783 15.0626L28.6256 15.9739C28.6342 16.1382 28.4338 16.2244 28.3204 16.1053L27.6912 15.4443C27.3348 15.0698 26.8325 14.8697 26.3163 14.8966L25.4049 14.944C25.2407 14.9525 25.1545 14.7521 25.2736 14.6388L25.9346 14.0096C26.309 13.6531 26.5091 13.1509 26.4823 12.6346L26.4349 11.7232Z" fill="#FFDA8B"/>
<path id="Star 16" d="M22.535 14.3237C22.6947 13.8921 23.3053 13.8921 23.465 14.3237L24.3514 16.7193C24.8536 18.0764 25.9236 19.1464 27.2807 19.6486L29.6763 20.535C30.1079 20.6947 30.1079 21.3053 29.6763 21.465L27.2807 22.3514C25.9236 22.8536 24.8536 23.9236 24.3514 25.2807L23.465 27.6763C23.3053 28.1079 22.6947 28.1079 22.535 27.6763L21.6486 25.2807C21.1464 23.9236 20.0764 22.8536 18.7193 22.3514L16.3237 21.465C15.8921 21.3053 15.8921 20.6947 16.3237 20.535L18.7193 19.6486C20.0764 19.1464 21.1464 18.0764 21.6486 16.7193L22.535 14.3237Z" fill="#FFDA8B"/>
</g>
</svg>
