<svg width="30" height="30" viewBox="0 0 30 30" fill="none" xmlns="http://www.w3.org/2000/svg">
<g id="tag/&#229;&#129;&#165;&#229;&#186;&#183;&#230;&#152;&#159;&#229;&#186;&#167;">
<path id="Subtract" fill-rule="evenodd" clip-rule="evenodd" d="M20.7839 6.99931C22.7345 6.99931 24.3138 5.43348 24.3138 3.49965C24.3138 1.56959 22.7308 0 20.7839 0C18.8332 0 17.2502 1.56583 17.2502 3.49965C17.2539 5.43348 18.8332 6.99931 20.7839 6.99931ZM26.5946 5.99297C24.5651 8.80546 21.853 9.13215 18.9307 7.41236C18.8385 7.35833 18.5991 7.22585 18.3496 7.08773L18.3494 7.08761L18.3487 7.08724L18.3486 7.08719L18.3483 7.08703C18.0606 6.92777 17.7597 6.7612 17.6553 6.69891C12.955 3.93524 8.25836 5.02043 5.11104 9.38749C3.77184 11.2462 6.86664 13.0073 8.19084 11.1711C9.81889 8.91436 11.8858 8.26099 14.1479 8.97444C12.9887 10.9646 11.9759 12.9472 10.5466 15.7597C9.1174 18.5722 5.96258 20.8177 2.9278 19.0603C0.740807 17.7949 -1.23236 20.9078 0.947127 22.1695C5.08853 24.5652 9.94268 23.0932 12.4185 19.9803C12.5048 20.0254 12.5948 20.0667 12.6961 20.1005C13.3085 20.3116 13.9782 20.6289 14.637 20.987C14.8071 20.757 15.0247 20.5484 15.2924 20.3727L17.428 18.9714C17.5517 18.8902 17.6682 18.8005 17.777 18.7033C17.2478 18.3617 16.7095 18.0417 16.1998 17.7836C17.2952 15.6846 18.4318 13.6081 19.6322 11.5691C21.2914 12.0733 22.9159 12.1003 24.4346 11.6753C24.4546 9.94305 26.3911 8.98367 27.7667 9.86306C28.4484 9.28227 29.0863 8.58436 29.6706 7.77284C31.0098 5.91412 27.9188 4.15303 26.5946 5.99297ZM23.7257 29.7326C23.2054 29.5767 22.7234 29.2421 22.3727 28.7076L20.9714 26.5721C20.6175 26.0328 20.1008 25.6291 19.505 25.4134C19.8557 26.1137 20.2139 26.8908 20.5422 27.603L20.5422 27.6031C20.7856 28.1311 21.0125 28.6235 21.2078 29.0223C21.7407 30.1114 22.9047 30.1987 23.7257 29.7326Z" fill="white"/>
<path id="Star 18" d="M26.4349 11.7232C26.4264 11.559 26.6267 11.4728 26.7401 11.5919L27.3693 12.2529C27.7257 12.6274 28.228 12.8274 28.7443 12.8006L29.6556 12.7532C29.8199 12.7447 29.9061 12.945 29.787 13.0584L29.126 13.6876C28.7515 14.0441 28.5514 14.5463 28.5783 15.0626L28.6256 15.9739C28.6342 16.1382 28.4338 16.2244 28.3204 16.1053L27.6912 15.4443C27.3348 15.0698 26.8325 14.8697 26.3163 14.8966L25.4049 14.944C25.2407 14.9525 25.1545 14.7521 25.2736 14.6388L25.9346 14.0096C26.309 13.6531 26.5091 13.1509 26.4823 12.6346L26.4349 11.7232Z" fill="#FFDA8B"/>
<path id="Star 16" d="M21.0489 14.5983C21.1078 14.1418 21.7027 14.0048 21.9552 14.3896L23.3565 16.5252C24.1504 17.735 25.4332 18.5377 26.8684 18.7226L29.4017 19.0489C29.8582 19.1077 29.9952 19.7027 29.6104 19.9552L27.4748 21.3565C26.265 22.1504 25.4623 23.4332 25.2774 24.8684L24.9511 27.4017C24.8923 27.8582 24.2973 27.9952 24.0448 27.6104L22.6435 25.4748C21.8496 24.2649 20.5668 23.4623 19.1316 23.2774L16.5983 22.9511C16.1418 22.8923 16.0048 22.2973 16.3896 22.0448L18.5252 20.6435C19.7351 19.8496 20.5377 18.5668 20.7226 17.1316L21.0489 14.5983Z" fill="#FFDA8B"/>
</g>
</svg>
