<svg width="30" height="30" viewBox="0 0 30 30" fill="none" xmlns="http://www.w3.org/2000/svg">
<g id="tag/&#231;&#136;&#177;&#230;&#131;&#133;&#230;&#152;&#159;&#229;&#186;&#167;">
<path id="Subtract" fill-rule="evenodd" clip-rule="evenodd" d="M2.4021 4.48698C5.60476 1.1716 10.7973 1.1716 14 4.48698C17.2026 1.17101 22.3952 1.17101 25.598 4.48698C27.0848 6.02613 27.8814 8.00949 27.9877 10.0246C26.5718 8.84951 24.3376 9.90235 24.4377 11.8268L24.471 12.4679C23.2324 11.5737 21.2768 11.961 20.6593 13.6296L19.7729 16.0251C19.4733 16.8348 18.8349 17.4732 18.0252 17.7728L15.6297 18.6592C13.4568 19.4633 13.4568 22.5366 15.6297 23.3406L18.0252 24.2271C18.0505 24.2364 18.0756 24.2461 18.1005 24.2561L14.826 27.646C14.3702 28.118 13.6298 28.118 13.1739 27.646L2.4021 16.4941C-0.800701 13.1787 -0.800701 7.80294 2.4021 4.48698Z" fill="white"/>
<path id="Star 18" d="M26.4349 11.7232C26.4264 11.559 26.6267 11.4728 26.7401 11.5919L27.3693 12.2529C27.7257 12.6274 28.228 12.8274 28.7443 12.8006L29.6556 12.7532C29.8199 12.7447 29.9061 12.945 29.787 13.0584L29.126 13.6876C28.7515 14.0441 28.5514 14.5463 28.5783 15.0626L28.6256 15.9739C28.6342 16.1382 28.4338 16.2244 28.3204 16.1053L27.6912 15.4443C27.3348 15.0698 26.8325 14.8697 26.3163 14.8966L25.4049 14.944C25.2407 14.9525 25.1545 14.7521 25.2736 14.6388L25.9346 14.0096C26.309 13.6531 26.5091 13.1509 26.4823 12.6346L26.4349 11.7232Z" fill="#FFDA8B"/>
<path id="Star 16" d="M22.535 14.3237C22.6947 13.8921 23.3053 13.8921 23.465 14.3237L24.3514 16.7193C24.8536 18.0764 25.9236 19.1464 27.2807 19.6486L29.6763 20.535C30.1079 20.6947 30.1079 21.3053 29.6763 21.465L27.2807 22.3514C25.9236 22.8536 24.8536 23.9236 24.3514 25.2807L23.465 27.6763C23.3053 28.1079 22.6947 28.1079 22.535 27.6763L21.6486 25.2807C21.1464 23.9236 20.0764 22.8536 18.7193 22.3514L16.3237 21.465C15.8921 21.3053 15.8921 20.6947 16.3237 20.535L18.7193 19.6486C20.0764 19.1464 21.1464 18.0764 21.6486 16.7193L22.535 14.3237Z" fill="#FFDA8B"/>
</g>
</svg>
