<svg width="31" height="30" viewBox="0 0 31 30" fill="none" xmlns="http://www.w3.org/2000/svg">
<g id="tag/&#231;&#136;&#177;&#230;&#131;&#133;&#233;&#133;&#141;&#229;&#175;&#185;">
<path id="Subtract" fill-rule="evenodd" clip-rule="evenodd" d="M2.13 4.72175C4.30323 2.42649 7.82675 2.42649 9.99999 4.72175C12.1732 2.42608 15.6967 2.42608 17.8701 4.72175C19.1577 6.08169 19.6824 7.94254 19.4442 9.71072C18.3967 9.14367 17.2282 8.9161 16.0835 9.02801C15.8915 9.00948 15.6969 9 15.5 9C12.1863 9 9.5 11.6863 9.5 15C9.5 16.8489 10.3362 18.5024 11.6511 19.603L10.5605 20.755C10.2512 21.0817 9.74878 21.0817 9.43945 20.7549L2.13 13.0344C-0.0433327 10.7391 -0.0433327 7.01742 2.13 4.72175ZM13.8179 20.761L20.4394 27.7549C20.7488 28.0817 21.2512 28.0817 21.5605 27.755L28.8701 20.0344C31.0433 17.7391 31.0433 14.017 28.8701 11.7218C26.6967 9.42608 23.1732 9.42608 21 11.7218C20.5948 11.2938 20.1426 10.9456 19.661 10.6772C20.7946 11.7687 21.5 13.302 21.5 15C21.5 18.3137 18.8137 21 15.5 21C14.9161 21 14.3516 20.9166 13.8179 20.761Z" fill="white"/>
<path id="Subtract_2" fill-rule="evenodd" clip-rule="evenodd" d="M15.5 19C17.7091 19 19.5 17.2091 19.5 15C19.5 12.7909 17.7091 11 15.5 11C13.2909 11 11.5 12.7909 11.5 15C11.5 17.2091 13.2909 19 15.5 19ZM15 13C15 12.7239 15.2239 12.5 15.5 12.5C15.7761 12.5 16 12.7239 16 13V14.5H17.5C17.7761 14.5 18 14.7239 18 15C18 15.2761 17.7761 15.5 17.5 15.5H16V17C16 17.2761 15.7761 17.5 15.5 17.5C15.2239 17.5 15 17.2761 15 17V15.5H13.5C13.2239 15.5 13 15.2761 13 15C13 14.7239 13.2239 14.5 13.5 14.5H15V13Z" fill="#FFDA8B"/>
<path id="Star 18" d="M25.9651 3.26756C26.0916 3.16254 26.2805 3.2716 26.2528 3.43369L26.0991 4.33324C26.0121 4.84285 26.152 5.36506 26.4822 5.76287L27.0651 6.46507C27.1701 6.5916 27.061 6.7805 26.8989 6.75281L25.9994 6.59915C25.4898 6.51209 24.9676 6.65202 24.5698 6.98221L23.8676 7.56507C23.741 7.67009 23.5521 7.56103 23.5798 7.39894L23.7335 6.49939C23.8205 5.98978 23.6806 5.46757 23.3504 5.06976L22.7676 4.36756C22.6625 4.24103 22.7716 4.05213 22.9337 4.07982L23.8332 4.23348C24.3429 4.32053 24.8651 4.18061 25.2629 3.85041L25.9651 3.26756Z" fill="#FFDA8B"/>
</g>
</svg>
