<svg width="31" height="30" viewBox="0 0 31 30" fill="none" xmlns="http://www.w3.org/2000/svg">
<g id="tag/&#229;&#141;&#129;&#228;&#186;&#140;&#230;&#152;&#159;&#229;&#186;&#167;">
<path id="Ellipse 585 (Stroke)" fill-rule="evenodd" clip-rule="evenodd" d="M6.6294 13.8063C6.18566 14.2259 6 14.6295 6 15C6 15.3705 6.18566 15.7741 6.6294 16.1937C7.0742 16.6144 7.74467 17.0162 8.61463 17.3642C10.3518 18.059 12.7859 18.5 15.5 18.5C18.2141 18.5 20.6482 18.059 22.3854 17.3642C23.2553 17.0162 23.9258 16.6144 24.3706 16.1937C24.8143 15.7741 25 15.3705 25 15C25 14.6295 24.8143 14.2259 24.3706 13.8063C23.9258 13.3856 23.2553 12.9838 22.3854 12.6358C20.6482 11.941 18.2141 11.5 15.5 11.5C12.7859 11.5 10.3518 11.941 8.61463 12.6358C7.74467 12.9838 7.0742 13.3856 6.6294 13.8063ZM8.24324 11.7073C10.1254 10.9545 12.6913 10.5 15.5 10.5C18.3087 10.5 20.8746 10.9545 22.7568 11.7073C23.6964 12.0832 24.4904 12.5433 25.0577 13.0797C25.626 13.6172 26 14.2659 26 15C26 15.7341 25.626 16.3828 25.0577 16.9203C24.4904 17.4567 23.6964 17.9168 22.7568 18.2927C20.8746 19.0455 18.3087 19.5 15.5 19.5C12.6913 19.5 10.1254 19.0455 8.24324 18.2927C7.30355 17.9168 6.50955 17.4567 5.9423 16.9203C5.37398 16.3828 5 15.7341 5 15C5 14.2659 5.37398 13.6172 5.9423 13.0797C6.50955 12.5433 7.30355 12.0832 8.24324 11.7073Z" fill="#FFDA8B"/>
<path id="Star 16" d="M15.035 8.32374C15.1947 7.89209 15.8053 7.89209 15.965 8.32374L16.8514 10.7193C17.3536 12.0764 18.4236 13.1464 19.7807 13.6486L22.1763 14.535C22.6079 14.6947 22.6079 15.3053 22.1763 15.465L19.7807 16.3514C18.4236 16.8536 17.3536 17.9236 16.8514 19.2807L15.965 21.6763C15.8053 22.1079 15.1947 22.1079 15.035 21.6763L14.1486 19.2807C13.6464 17.9236 12.5764 16.8536 11.2193 16.3514L8.82374 15.465C8.39209 15.3053 8.39209 14.6947 8.82374 14.535L11.2193 13.6486C12.5764 13.1464 13.6464 12.0764 14.1486 10.7193L15.035 8.32374Z" fill="white"/>
<path id="Ellipse 590 (Stroke)" fill-rule="evenodd" clip-rule="evenodd" d="M8.61463 17.3642C10.3518 18.059 12.7859 18.5 15.5 18.5C18.2141 18.5 20.6482 18.059 22.3854 17.3642C23.2553 17.0162 23.9258 16.6144 24.3706 16.1937C24.8143 15.7741 25 15.3705 25 15H26C26 15.7341 25.626 16.3828 25.0577 16.9203C24.4904 17.4567 23.6964 17.9168 22.7568 18.2927C20.8746 19.0455 18.3087 19.5 15.5 19.5C12.6913 19.5 10.1254 19.0455 8.24324 18.2927C7.30355 17.9168 6.50955 17.4567 5.9423 16.9203C5.37398 16.3828 5 15.7341 5 15H6C6 15.3705 6.18566 15.7741 6.6294 16.1937C7.0742 16.6144 7.74467 17.0162 8.61463 17.3642Z" fill="#FFDA8B"/>
<path id="Ellipse 587 (Stroke)" fill-rule="evenodd" clip-rule="evenodd" d="M6.15242 21.8711C5.90237 24.8815 6.6234 26.9956 8.08652 27.8404C9.54964 28.6851 11.7411 28.2524 14.2231 26.5307C16.6698 24.8335 19.2399 21.9806 21.3277 18.3644C23.4155 14.7483 24.6011 11.096 24.8476 8.12851C25.0977 5.11819 24.3766 3.004 22.9135 2.15926C21.4504 1.31453 19.2589 1.7472 16.7769 3.46891C14.3302 5.16615 11.7601 8.01909 9.67235 11.6352C7.58458 15.2513 6.39892 18.9036 6.15242 21.8711ZM5.15585 21.7883C5.41707 18.6436 6.66166 14.8499 8.80632 11.1352C10.951 7.42055 13.6141 4.44586 16.207 2.64725C18.7645 0.873101 21.419 0.141679 23.4135 1.29324C25.4081 2.4448 26.1019 5.1093 25.8442 8.21129C25.583 11.3561 24.3384 15.1498 22.1937 18.8644C20.049 22.5791 17.3859 25.5538 14.7931 27.3524C12.2355 29.1265 9.58108 29.858 7.58652 28.7064C5.59196 27.5548 4.89818 24.8903 5.15585 21.7883Z" fill="#FFDA8B"/>
<circle id="Ellipse 588" cx="27.5" cy="27" r="2" fill="white"/>
<circle id="Ellipse 591" cx="24.5" cy="21" r="2" fill="white"/>
<path id="Subtract" fill-rule="evenodd" clip-rule="evenodd" d="M2.5 15C2.5 13.3046 3.71168 11.5742 6.09664 10.2114C8.45332 8.86472 11.7758 8 15.5 8C19.2242 8 22.5467 8.86472 24.9034 10.2114C27.2883 11.5742 28.5 13.3046 28.5 15C28.5 16.1331 27.9588 17.2819 26.8877 18.326C26.6669 18.5414 26.6672 18.9029 26.858 19.1452C26.9894 19.312 27.1035 19.4931 27.1975 19.6857C27.3635 20.0258 27.8143 20.1933 28.0923 19.9366C29.5662 18.5753 30.5 16.8977 30.5 15C30.5 12.2771 28.5777 10.0075 25.8956 8.4749C23.1853 6.92615 19.5078 6 15.5 6C11.4922 6 7.81469 6.92615 5.10437 8.4749C2.42233 10.0075 0.5 12.2771 0.5 15C0.5 17.7229 2.42233 19.9925 5.10437 21.5251C7.81469 23.0739 11.4922 24 15.5 24C17.6354 24 19.6771 23.7371 21.5287 23.2571C21.8869 23.1643 22.011 22.7157 21.8396 22.3877C21.7432 22.2033 21.6654 22.0075 21.6087 21.803C21.5233 21.495 21.215 21.274 20.9051 21.3522C19.2649 21.7661 17.4368 22 15.5 22C11.7758 22 8.45332 21.1353 6.09664 19.7886C3.71168 18.4258 2.5 16.6954 2.5 15Z" fill="white"/>
<circle id="Ellipse 589" cx="3.5" cy="3" r="2" fill="white"/>
</g>
</svg>
