<svg width="30" height="30" viewBox="0 0 30 30" fill="none" xmlns="http://www.w3.org/2000/svg">
<g id="tag/&#230;&#175;&#143;&#230;&#151;&#165;&#232;&#191;&#144;&#229;&#138;&#191;">
<g id="Rotated Instances">
<g id="Ellipse 582">
<path id="Ellipse 582_2" d="M17.897 3.62031C17.897 4.24064 16.6002 3.62031 15.0005 3.62031C13.4008 3.62031 12.104 4.24064 12.104 3.62031C12.104 2.99998 13.4008 0.999512 15.0005 0.999512C16.6002 0.999512 17.897 2.99998 17.897 3.62031Z" fill="#FFDA8B"/>
</g>
<g id="Rotated Instance 2">
<path id="Ellipse 582_3" d="M25.0947 9.00109C24.6561 9.43973 24.1777 8.08411 23.0466 6.95295C21.9154 5.8218 20.5598 5.34346 20.9984 4.90482C21.4371 4.46618 23.7686 3.96862 24.8998 5.09977C26.0309 6.23092 25.5333 8.56245 25.0947 9.00109Z" fill="#FFDA8B"/>
</g>
<g id="Rotated Instance 3">
<path id="Ellipse 582_4" d="M26.3794 17.8963C25.7591 17.8963 26.3794 16.5995 26.3794 14.9998C26.3794 13.4001 25.7591 12.1033 26.3794 12.1033C26.9997 12.1033 29.0002 13.4001 29.0002 14.9998C29.0002 16.5995 26.9997 17.8963 26.3794 17.8963Z" fill="#FFDA8B"/>
</g>
<g id="Rotated Instance 4">
<path id="Ellipse 582_5" d="M20.9985 25.095C20.5598 24.6564 21.9155 24.178 23.0466 23.0469C24.1778 21.9157 24.6561 20.5601 25.0948 20.9987C25.5334 21.4374 26.031 23.7689 24.8998 24.9001C23.7686 26.0312 21.4371 25.5336 20.9985 25.095Z" fill="#FFDA8B"/>
</g>
<g id="Rotated Instance 5">
<path id="Ellipse 582_6" d="M12.104 26.3786C12.104 25.7583 13.4008 26.3786 15.0005 26.3786C16.6002 26.3786 17.897 25.7583 17.897 26.3786C17.897 26.9989 16.6002 28.9994 15.0005 28.9994C13.4008 28.9994 12.104 26.9989 12.104 26.3786Z" fill="#FFDA8B"/>
</g>
<g id="Rotated Instance 6">
<path id="Ellipse 582_7" d="M4.90621 20.9983C5.34484 20.5597 5.82319 21.9153 6.95434 23.0464C8.0855 24.1776 9.44111 24.6559 9.00248 25.0946C8.56384 25.5332 6.23231 26.0308 5.10116 24.8996C3.97 23.7685 4.46757 21.4369 4.90621 20.9983Z" fill="#FFDA8B"/>
</g>
<g id="Rotated Instance 7">
<path id="Ellipse 582_8" d="M3.62153 12.1034C4.24186 12.1034 3.62153 13.4002 3.62153 14.9999C3.62153 16.5996 4.24186 17.8964 3.62153 17.8964C3.00121 17.8964 1.00073 16.5996 1.00073 14.9999C1.00073 13.4002 3.00121 12.1034 3.62153 12.1034Z" fill="#FFDA8B"/>
</g>
<g id="Rotated Instance 8">
<path id="Ellipse 582_9" d="M9.00243 4.90438C9.44107 5.34301 8.08545 5.82136 6.9543 6.95251C5.82314 8.08366 5.3448 9.43928 4.90616 9.00065C4.46753 8.56201 3.96996 6.23048 5.10111 5.09933C6.23227 3.96817 8.5638 4.46574 9.00243 4.90438Z" fill="#FFDA8B"/>
</g>
</g>
<path id="Subtract" fill-rule="evenodd" clip-rule="evenodd" d="M9.99998 23.6597C14.7829 26.4212 20.8988 24.7824 23.6602 19.9995C26.4217 15.2166 24.7829 9.10066 20 6.33923C15.217 3.57781 9.10115 5.21656 6.33972 9.99949C3.5783 14.7824 5.21705 20.8983 9.99998 23.6597ZM16.6499 8.19559C17.723 8.45691 18.0521 9.71302 17.4998 10.6696L12.4997 19.33C11.9475 20.2865 10.6951 20.6296 9.93222 19.8309C9.14788 19.0097 8.55266 17.9856 8.23802 16.8113C7.23743 13.0771 9.45351 9.23873 13.1878 8.23813C14.362 7.9235 15.5465 7.92692 16.6499 8.19559Z" fill="white"/>
</g>
</svg>
