<svg width="31" height="30" viewBox="0 0 31 30" fill="none" xmlns="http://www.w3.org/2000/svg">
<g id="tag/&#230;&#175;&#143;&#230;&#151;&#165;&#229;&#161;&#148;&#231;&#189;&#151;">
<path id="Subtract" fill-rule="evenodd" clip-rule="evenodd" d="M17.025 7.93185C17.3108 6.86492 18.4075 6.23175 19.4745 6.51764L28.032 8.81064C29.099 9.09652 29.7321 10.1932 29.4463 11.2601L24.9344 28.0986C24.6485 29.1655 23.5519 29.7987 22.4849 29.5128L13.9273 27.2198C12.8604 26.9339 12.2272 25.8372 12.5131 24.7703L17.025 7.93185ZM27.864 10.5408L18.755 8.10004L16.4264 16.7906C16.4611 16.6671 16.5643 16.5629 16.7169 16.5487L18.4301 16.3896C19.4006 16.2994 20.2834 15.7898 20.8467 14.9944L21.8411 13.5903C22.0203 13.3373 22.4175 13.4437 22.4462 13.7524L22.6053 15.4656C22.6954 16.4361 23.2051 17.3188 24.0005 17.8822L25.4046 18.8766C25.6576 19.0557 25.5512 19.453 25.2425 19.4816L23.5293 19.6407C22.5587 19.7309 21.676 20.2405 21.1127 21.036L20.1183 22.4401C19.9391 22.6931 19.5419 22.5866 19.5132 22.2779L19.3541 20.5648C19.264 19.5942 18.7543 18.7115 17.9589 18.1482L16.5548 17.1538C16.4297 17.0652 16.3925 16.9233 16.4241 16.799L14.0954 25.4899L23.2044 27.9306L27.864 10.5408ZM18.9769 7.27195C18.5195 7.14941 18.0495 7.42081 17.9269 7.87815L13.2673 25.268C13.1448 25.7253 13.4162 26.1954 13.8735 26.3179L22.9825 28.7587C23.4398 28.8812 23.9099 28.6098 24.0325 28.1525L28.692 10.7627C28.8146 10.3053 28.5432 9.83523 28.0858 9.71269L18.9769 7.27195Z" fill="#FFDA8B"/>
<path id="Subtract_2" fill-rule="evenodd" clip-rule="evenodd" d="M2.43186 3.36474C1.36492 3.65063 0.731758 4.7473 1.01764 5.81423L6.45284 26.0987C6.73873 27.1656 7.8354 27.7988 8.90233 27.5129L11.4396 26.833C11.2724 26.5439 11.1771 26.213 11.1707 25.8698L8.64351 26.547C8.11005 26.6899 7.56171 26.3733 7.41877 25.8399L1.98357 5.55542C1.84063 5.02195 2.15721 4.47361 2.69067 4.33067L13.3159 1.48366C13.8493 1.34072 14.3977 1.6573 14.5406 2.19077L15.9877 7.59144L16.1933 6.82431C16.2735 6.52483 16.4176 6.25953 16.607 6.03913L15.5065 1.93195C15.2206 0.865016 14.124 0.231851 13.057 0.517735L2.43186 3.36474ZM15.4701 9.52329L13.5747 2.44959L2.94949 5.2966L5.66709 15.4388L8.38469 25.581L11.3827 24.7777L14.149 14.4538C13.4251 15.1051 12.9669 16.0088 12.8759 16.9893L12.6903 18.9876C12.6568 19.3477 12.1935 19.4719 11.9845 19.1768L10.8246 17.5389C10.1674 16.6111 9.13779 16.0166 8.0057 15.9115L6.00735 15.7259C5.82731 15.7092 5.70625 15.585 5.66709 15.4388C5.62793 15.2927 5.67068 15.1246 5.81824 15.0201L7.45605 13.8602C8.3839 13.2031 8.97837 12.1734 9.08352 11.0413L9.26912 9.04298C9.30256 8.6829 9.76591 8.55874 9.97492 8.85386L11.1348 10.4917C11.7919 11.4195 12.8216 12.014 13.9537 12.1191L14.7546 12.1935L15.4701 9.52329Z" fill="white"/>
<path id="Star 18" d="M27.8348 2.11566C27.8919 1.96144 28.11 1.96145 28.167 2.11566L28.4837 2.97153C28.6632 3.45639 29.0454 3.83867 29.5303 4.01809L30.3862 4.33479C30.5404 4.39185 30.5404 4.60998 30.3862 4.66704L29.5303 4.98374C29.0454 5.16316 28.6632 5.54544 28.4837 6.0303L28.167 6.88617C28.11 7.04039 27.8919 7.04038 27.8348 6.88617L27.5181 6.0303C27.3387 5.54544 26.9564 5.16316 26.4715 4.98374L25.6157 4.66704C25.4614 4.60998 25.4614 4.39185 25.6157 4.33479L26.4715 4.01809C26.9564 3.83867 27.3387 3.45639 27.5181 2.97153L27.8348 2.11566Z" fill="#FFDA8B"/>
</g>
</svg>
