<svg width="30" height="30" viewBox="0 0 30 30" fill="none" xmlns="http://www.w3.org/2000/svg">
<g id="tag/&#232;&#180;&#162;&#229;&#175;&#140;&#230;&#152;&#159;&#229;&#186;&#167;">
<path id="Subtract" fill-rule="evenodd" clip-rule="evenodd" d="M18.7143 28.0001C23.8427 28.0001 28 23.8428 28 18.7144C28 13.5861 23.8427 9.42871 18.7143 9.42871C13.5859 9.42871 9.42859 13.5861 9.42859 18.7144C9.42859 23.8428 13.5859 28.0001 18.7143 28.0001ZM18.0297 25.1132C18.0889 25.1806 18.165 25.2143 18.2579 25.2143H19.158C19.2425 25.2143 19.3143 25.1806 19.3735 25.1132C19.4326 25.0458 19.4622 24.9591 19.4622 24.8532V23.8565C20.0622 23.7699 20.582 23.5965 21.0215 23.3365C21.4694 23.0765 21.8159 22.7347 22.0609 22.311C22.306 21.8777 22.4286 21.3817 22.4286 20.8232C22.4286 20.2454 22.3187 19.7688 22.099 19.3932C21.8877 19.008 21.5497 18.6951 21.0848 18.4543C20.62 18.2136 20.0158 18.0065 19.2721 17.8332C18.7819 17.6888 18.3931 17.5588 18.1058 17.4432C17.8185 17.318 17.6114 17.1784 17.4846 17.0243C17.3579 16.8606 17.2945 16.6632 17.2945 16.4321C17.2945 16.0758 17.417 15.811 17.6621 15.6377C17.9072 15.4643 18.2368 15.3777 18.6509 15.3777C19.0397 15.3777 19.3608 15.4739 19.6143 15.6665C19.8679 15.8495 20.0158 16.0662 20.058 16.3165C20.1087 16.4128 20.1679 16.4802 20.2355 16.5188C20.3031 16.5573 20.3749 16.5765 20.451 16.5765H21.8835C21.9595 16.5765 22.0229 16.5477 22.0736 16.4899C22.1243 16.4225 22.1497 16.3502 22.1497 16.2732C22.1412 15.9265 22.0314 15.5702 21.8201 15.2043C21.6173 14.8288 21.3172 14.4965 20.92 14.2077C20.5313 13.9091 20.0453 13.7069 19.4622 13.601V12.5754C19.4622 12.4695 19.4326 12.3828 19.3735 12.3154C19.3143 12.248 19.2425 12.2143 19.158 12.2143H18.2579C18.165 12.2143 18.0889 12.248 18.0297 12.3154C17.9706 12.3828 17.941 12.4695 17.941 12.5754V13.5721C17.0959 13.6973 16.4325 14.0247 15.9508 14.5543C15.4775 15.0839 15.2409 15.7291 15.2409 16.4899C15.2409 17.0677 15.3507 17.5539 15.5705 17.9488C15.7986 18.3339 16.1325 18.6517 16.5719 18.9021C17.0114 19.1428 17.548 19.3402 18.1819 19.4943C18.7143 19.6388 19.1368 19.7736 19.4495 19.8988C19.7707 20.0239 20.0031 20.1636 20.1468 20.3177C20.2989 20.4717 20.3749 20.6739 20.3749 20.9243C20.3749 21.271 20.2355 21.5454 19.9566 21.7477C19.6862 21.9499 19.2763 22.051 18.727 22.051C18.3889 22.051 18.1058 22.0028 17.8776 21.9065C17.6494 21.8006 17.4677 21.6706 17.3325 21.5165C17.2058 21.3625 17.1128 21.2036 17.0536 21.0399C17.0029 20.9628 16.948 20.9002 16.8888 20.8521C16.8297 20.7943 16.7452 20.7654 16.6353 20.7654H15.2789C15.2028 20.7654 15.1352 20.7991 15.0761 20.8665C15.0254 20.9243 15 20.9917 15 21.0688C15.0169 21.5021 15.1352 21.9162 15.3549 22.311C15.5747 22.7058 15.9 23.0428 16.3311 23.3221C16.7621 23.5917 17.2987 23.7699 17.941 23.8565V24.8532C17.941 24.9591 17.9706 25.0458 18.0297 25.1132Z" fill="#FFDA8B"/>
<path id="Subtract_2" fill-rule="evenodd" clip-rule="evenodd" d="M3 2C2.44772 2 2 2.44771 2 3V4.71429C2 5.26657 2.44771 5.71429 3 5.71429H21.4286C21.9809 5.71429 22.4286 5.26657 22.4286 4.71429V3C22.4286 2.44772 21.9809 2 21.4286 2H3ZM3 7.57136C2.44772 7.57136 2 8.01908 2 8.57136V10.2856C2 10.8379 2.44771 11.2856 3 11.2856H10.4087C12.4491 9.00601 15.4141 7.57136 18.7143 7.57136C19.9866 7.57136 21.209 7.78459 22.3479 8.17726C22.195 7.82093 21.8409 7.57136 21.4286 7.57136H18.7143H3ZM9.06216 24.2857C9.92458 25.7766 11.1225 27.0491 12.5527 28H3C2.44771 28 2 27.5523 2 27V25.2857C2 24.7334 2.44772 24.2857 3 24.2857H9.06216ZM7.57142 18.7143C7.57143 20.0167 7.79487 21.2669 8.20551 22.4286H4.85716C4.30487 22.4286 3.85716 21.9809 3.85716 21.4286V19.7143C3.85716 19.162 4.30487 18.7143 4.85716 18.7143H7.57142ZM9.06204 13.143C8.40955 14.271 7.94912 15.524 7.72546 16.8572H3.92858C3.37629 16.8572 2.92858 16.4095 2.92858 15.8572V14.143C2.92858 13.5907 3.3763 13.143 3.92858 13.143H9.06204Z" fill="white"/>
</g>
</svg>
